HIERARCHY
ROOT Hips
{
	OFFSET 52.046600 -28.981413 86.755989
	CHANNELS 6 Xposition Yposition Zposition Xrotation Yrotation Zrotation
	JOINT spine
	{
		OFFSET 0.000000 -0.393702 6.846367
		CHANNELS 3 Xrotation Yrotation Zrotation
		JOINT spine1
		{
			OFFSET 0.000000 -0.000002 9.496208
			CHANNELS 3 Xrotation Yrotation Zrotation
			JOINT spine2
			{
				OFFSET 0.000000 -0.000002 9.099091
				CHANNELS 3 Xrotation Yrotation Zrotation
				JOINT Neck
				{
					OFFSET 0.000000 -1.113785 23.361214
					CHANNELS 3 Xrotation Yrotation Zrotation
					JOINT Head
					{
						OFFSET 0.000000 0.000000 7.058014
						CHANNELS 3 Xrotation Yrotation Zrotation
						End Site
						{
							OFFSET 0.000000 5.634186 17.084396
						}
					}
				}
				JOINT RightShoulder
				{
					OFFSET -3.831360 0.533491 9.826309
					CHANNELS 3 Xrotation Yrotation Zrotation
					JOINT RightArm
					{
						OFFSET 0.000000 -0.000004 12.888115
						CHANNELS 3 Xrotation Yrotation Zrotation
						JOINT RightArmRoll
						{
							OFFSET 0.000000 0.000000 6.506165
							CHANNELS 3 Xrotation Yrotation Zrotation
							JOINT RightForeArm
							{
								OFFSET 0.000000 -0.000004 18.950104
								CHANNELS 3 Xrotation Yrotation Zrotation
								JOINT RightForeArmRoll
								{
									OFFSET 0.000000 0.000000 7.300919
									CHANNELS 3 Xrotation Yrotation Zrotation
									JOINT RightHand
									{
										OFFSET 0.000000 -0.000004 14.651398
										CHANNELS 3 Xrotation Yrotation Zrotation
										End Site
										{
											OFFSET 0.000000 0.000000 0.100006
										}
									}
								}
							}
						}
					}
				}
				JOINT LeftShoulder
				{
					OFFSET 3.831360 0.533491 9.826309
					CHANNELS 3 Xrotation Yrotation Zrotation
					JOINT LeftArm
					{
						OFFSET 0.000000 -0.000004 12.888115
						CHANNELS 3 Xrotation Yrotation Zrotation
						JOINT LeftArmRoll
						{
							OFFSET 0.000000 0.000000 6.506165
							CHANNELS 3 Xrotation Yrotation Zrotation
							JOINT LeftForeArm
							{
								OFFSET 0.000000 -0.000004 18.950104
								CHANNELS 3 Xrotation Yrotation Zrotation
								JOINT LeftForeArmRoll
								{
									OFFSET 0.000000 0.000000 7.300919
									CHANNELS 3 Xrotation Yrotation Zrotation
									JOINT LeftHand
									{
										OFFSET 0.000000 -0.000004 14.651398
										CHANNELS 3 Xrotation Yrotation Zrotation
										End Site
										{
											OFFSET 0.000000 0.000000 0.100006
										}
									}
								}
							}
						}
					}
				}
			}
		}
	}
	JOINT RightUpLeg
	{
		OFFSET -6.068371 0.933477 -1.112778
		CHANNELS 3 Xrotation Yrotation Zrotation
		JOINT RightUpLegRoll
		{
			OFFSET 0.000000 -0.000004 17.179596
			CHANNELS 3 Xrotation Yrotation Zrotation
			JOINT RightLeg
			{
				OFFSET 0.000000 0.000004 -21.274300
				CHANNELS 3 Xrotation Yrotation Zrotation
				JOINT RightLegRoll
				{
					OFFSET 0.000000 -0.000004 21.343903
					CHANNELS 3 Xrotation Yrotation Zrotation
					JOINT RightFoot
					{
						OFFSET 0.000000 -0.000002 17.765198
						CHANNELS 3 Xrotation Yrotation Zrotation
						JOINT RightToeBase
						{
							OFFSET 0.000000 -0.000004 14.850815
							CHANNELS 3 Xrotation Yrotation Zrotation
							End Site
							{
								OFFSET 0.006294 0.829004 7.192123
							}
						}
					}
				}
			}
		}
	}
	JOINT LeftUpLeg
	{
		OFFSET 6.068371 0.933477 -1.112778
		CHANNELS 3 Xrotation Yrotation Zrotation
		JOINT LeftUpLegRoll
		{
			OFFSET 0.000000 -0.000004 17.179703
			CHANNELS 3 Xrotation Yrotation Zrotation
			JOINT LeftLeg
			{
				OFFSET 0.000000 -0.000004 21.274200
				CHANNELS 3 Xrotation Yrotation Zrotation
				JOINT LeftLegRoll
				{
					OFFSET 0.000000 -0.000002 21.541206
					CHANNELS 3 Xrotation Yrotation Zrotation
					JOINT LeftFoot
					{
						OFFSET 0.000000 -0.000004 17.567902
						CHANNELS 3 Xrotation Yrotation Zrotation
						JOINT LeftToeBase
						{
							OFFSET 0.000000 -0.000002 14.850800
							CHANNELS 3 Xrotation Yrotation Zrotation
							End Site
							{
								OFFSET -0.028210 0.829002 7.192123
							}
						}
					}
				}
			}
		}
	}
}
MOTION
Frames: 9
Frame Time: 0.041667
53.159100 1.205399 54.950619 25.233371 -5.460364 -6.104620 1.495531 0.628221 1.101809 6.982224 1.294949 2.179582 8.626981 1.320959 2.163926 -1.928214 18.355399 -2.207512 9.576789 -17.114825 -3.081983 -10.860101 -38.184398 -11.547589 128.897855 -50.319161 62.482536 -0.000008 -0.000007 0.000003 63.330422 -1.054883 8.866440 0.000004 0.000007 -2.999990 -5.000138 -8.000358 -0.000077 -13.839088 53.924214 16.156982 114.538386 32.046769 -71.604555 -0.000003 -0.000002 0.000009 43.974226 27.769208 -16.009905 0.000007 -0.000011 3.000000 -5.000329 8.000078 -0.000157 -107.551738 -171.266106 1.541740 179.999991 0.000007 -1.007994 91.687599 -1.032683 -2.471786 0.000002 0.000001 2.300799 71.613837 8.058080 -1.298576 25.456860 -7.355612 -0.000004 -104.735910 166.429184 -4.782457 -0.000004 -0.000004 -0.377726 -92.690851 -0.533034 5.929487 -0.000002 0.000003 -1.844550 77.198070 -6.592215 -2.416355 25.456918 7.346833 -0.002095 
53.159199 1.163500 55.001125 25.453105 -5.458531 -6.094769 1.489948 0.624511 1.097927 6.971150 1.287296 2.172012 8.615923 1.313226 2.156448 -2.030417 18.347148 -2.195797 9.598368 -17.115971 -3.081586 -10.844692 -38.134357 -11.523199 129.059908 -50.495476 62.545197 -0.000006 -0.000008 0.000003 63.621785 -0.845298 8.727310 0.000002 0.000009 -2.999990 -5.000143 -8.000357 -0.000081 -13.835181 53.898020 16.151324 114.619617 32.188349 -71.693210 -0.000002 -0.000002 0.000007 44.117934 27.558821 -15.950582 0.000006 -0.000008 2.999999 -5.000332 8.000078 -0.000154 -107.665986 -171.255819 1.558485 179.999991 0.000004 -1.005003 91.736312 -1.073717 -2.517730 0.000002 0.000002 2.298768 71.661511 8.060860 -1.314271 25.456860 -7.355612 -0.000005 -104.866906 166.445973 -4.738633 -0.000002 -0.000004 -0.375147 -92.643299 -0.495492 5.952564 -0.000002 0.000003 -1.837600 77.243484 -6.594328 -2.405745 25.456914 7.346833 -0.002095 
53.161003 1.122080 55.053116 25.677444 -5.460525 -6.083307 1.483255 0.621298 1.092974 6.957897 1.280583 2.162303 8.602668 1.306390 2.146823 -2.132528 18.346141 -2.180914 9.621740 -17.124445 -3.077846 -10.825299 -38.080183 -11.493044 129.231059 -50.662214 62.625315 -0.000007 -0.000008 0.000003 63.905360 -0.646826 8.591192 -0.000004 0.000008 -2.999987 -5.000141 -8.000359 -0.000078 -13.837384 53.879391 16.153344 114.692987 32.333101 -71.770009 -0.000002 -0.000003 0.000009 44.265589 27.347002 -15.892428 0.000004 -0.000009 3.000000 -5.000328 8.000081 -0.000153 -107.786484 -171.244727 1.570214 179.999991 0.000006 -1.001997 91.784253 -1.115015 -2.561639 0.000002 0.000002 2.296470 71.708988 8.063372 -1.329194 25.456861 -7.355616 -0.000004 -105.001482 166.467351 -4.693631 -0.000003 -0.000005 -0.372611 -92.596355 -0.456751 5.974654 -0.000002 0.000003 -1.829910 77.290216 -6.595392 -2.398437 25.456916 7.346832 -0.002095 
53.162899 1.078751 55.104233 25.906916 -5.466850 -6.070004 1.475366 0.618647 1.086838 6.942215 1.274907 2.150229 8.586985 1.300571 2.134817 -2.234657 18.353272 -2.162323 9.647467 -17.141108 -3.070242 -10.801490 -38.021238 -11.456520 129.413971 -50.817208 62.726545 -0.000006 -0.000008 0.000003 64.180132 -0.460374 8.458656 -0.000000 0.000008 -2.999988 -5.000143 -8.000357 -0.000080 -13.846498 53.869036 16.164073 114.756904 32.481596 -71.832253 -0.000002 -0.000002 0.000009 44.417284 27.133720 -15.835512 0.000004 -0.000010 2.999998 -5.000328 8.000078 -0.000157 -107.914284 -171.232747 1.576991 179.999991 0.000005 -0.999005 91.831149 -1.156544 -2.605528 0.000002 0.000001 2.293879 71.756294 8.065448 -1.342979 25.456861 -7.355610 -0.000006 -105.140155 166.494085 -4.645195 -0.000004 -0.000004 -0.370099 -92.550101 -0.416712 5.997727 -0.000003 0.000003 -1.821370 77.338410 -6.595265 -2.395111 25.456914 7.346832 -0.002095 
53.160599 1.046719 55.170918 26.143102 -5.476554 -6.054179 1.466023 0.616393 1.079396 6.923670 1.269944 2.135541 8.568448 1.295433 2.120181 -2.337980 18.368930 -2.139615 9.675121 -17.167749 -3.058417 -10.773097 -37.957841 -11.413465 129.607047 -50.963006 62.845090 -0.000007 -0.000007 0.000003 64.446673 -0.284015 8.329475 0.000001 0.000008 -2.999989 -5.000143 -8.000358 -0.000078 -13.861915 53.866929 16.182779 114.812038 32.634630 -71.882577 -0.000003 -0.000002 0.000010 44.574672 26.916206 -15.779033 0.000004 -0.000009 3.000001 -5.000329 8.000075 -0.000156 -108.050280 -171.219455 1.579877 179.999991 0.000006 -0.995003 91.877014 -1.199066 -2.649362 0.000002 0.000002 2.290969 71.803873 8.067306 -1.356320 25.456860 -7.355612 -0.000006 -105.284907 166.527020 -4.592832 -0.000004 -0.000005 -0.367581 -92.504544 -0.375390 6.018795 -0.000003 0.000003 -1.811950 77.387990 -6.593816 -2.395862 25.456916 7.346834 -0.002095 
53.169300 0.996294 55.233620 26.386739 -5.488281 -6.035579 1.455219 0.614330 1.070684 6.902179 1.265296 2.118316 8.546967 1.290581 2.103027 -2.443219 18.392195 -2.112995 9.703734 -17.204417 -3.042703 -10.740548 -37.890946 -11.364574 129.812212 -51.099381 62.981837 -0.000009 -0.000009 0.000004 64.706145 -0.115156 8.203024 -0.000000 0.000010 -2.999988 -5.000144 -8.000359 -0.000075 -13.882273 53.872198 16.207791 114.858838 32.793777 -71.922541 -0.000003 -0.000003 0.000010 44.738026 26.692320 -15.721555 0.000004 -0.000008 3.000000 -5.000327 8.000078 -0.000159 -108.194172 -171.204702 1.578870 179.999991 0.000006 -0.991001 91.922182 -1.243094 -2.692150 0.000001 0.000002 2.287728 71.851869 8.069086 -1.369308 25.456863 -7.355613 -0.000004 -105.436203 166.566293 -4.536738 -0.000003 -0.000005 -0.365059 -92.459397 -0.332856 6.038843 -0.000002 0.000003 -1.801750 77.438615 -6.591238 -2.400222 25.456916 7.346834 -0.002095 
53.178398 0.916399 55.279930 26.636720 -5.501991 -6.014580 1.443099 0.612481 1.060842 6.878102 1.261021 2.098852 8.522893 1.286063 2.083608 -2.549854 18.422279 -2.082923 9.733067 -17.249836 -3.023577 -10.704244 -37.820970 -11.310394 130.026339 -51.227979 63.132968 -0.000007 -0.000008 0.000004 64.958938 0.046327 8.079392 -0.000000 0.000007 -2.999990 -5.000145 -8.000358 -0.000076 -13.907157 53.884103 16.238556 114.897756 32.958678 -71.952396 -0.000002 -0.000002 0.000008 44.906728 26.463317 -15.663275 0.000004 -0.000009 2.999999 -5.000330 8.000078 -0.000157 -108.344969 -171.188733 1.574888 179.999991 0.000006 -0.986002 91.966892 -1.288461 -2.736868 0.000002 0.000002 2.284189 71.900356 8.070668 -1.381962 25.456858 -7.355613 -0.000005 -105.593078 166.611045 -4.476938 -0.000003 -0.000004 -0.362559 -92.414454 -0.289230 6.058906 -0.000002 0.000003 -1.790850 77.490238 -6.587691 -2.407725 25.456914 7.346833 -0.002094 
53.177704 0.879942 55.337021 26.892058 -5.517659 -5.991570 1.429869 0.610861 1.050004 6.851787 1.257150 2.077414 8.496582 1.281948 2.062216 -2.657348 18.458182 -2.049879 9.762890 -17.302729 -3.001538 -10.664586 -37.748318 -11.251511 130.250259 -51.347996 63.299721 -0.000007 -0.000006 0.000002 65.205166 0.200570 7.958639 0.000001 0.000008 -2.999990 -5.000145 -8.000359 -0.000078 -13.936147 53.901985 16.274563 114.929749 33.128412 -71.973631 -0.000002 -0.000002 0.000006 45.080133 26.230163 -15.604252 0.000005 -0.000009 3.000001 -5.000329 8.000078 -0.000154 -108.501346 -171.171945 1.567881 179.999991 0.000005 -0.981001 92.011186 -1.334654 -2.780569 0.000002 0.000001 2.280370 71.949035 8.072108 -1.394250 25.456860 -7.355612 -0.000006 -105.754278 166.660372 -4.414873 -0.000005 -0.000005 -0.360106 -92.369422 -0.244532 6.077941 -0.000003 0.000003 -1.779340 77.542864 -6.583393 -2.417590 25.456916 7.346832 -0.002095 
53.179199 0.844744 55.394127 27.151638 -5.535240 -5.966932 1.415681 0.609489 1.038328 6.823572 1.253739 2.054290 8.468373 1.278265 2.039131 -2.765185 18.499306 -2.014313 9.792979 -17.361528 -2.977111 -10.621984 -37.673329 -11.188479 130.480997 -51.461220 63.478364 -0.000005 -0.000006 0.000002 65.445213 0.347689 7.840797 -0.000001 0.000010 -2.999986 -5.000141 -8.000358 -0.000075 -13.968895 53.925371 16.315357 114.956400 33.301653 -71.988684 -0.000002 -0.000002 0.000009 45.257349 25.994027 -15.544479 0.000005 -0.000008 2.999999 -5.000335 8.000076 -0.000157 -108.662415 -171.154555 1.558629 179.999991 0.000006 -0.976002 92.055275 -1.381577 -2.825210 0.000002 0.000002 2.276300 71.997864 8.073341 -1.405885 25.456860 -7.355609 -0.000006 -105.918585 166.713566 -4.351629 -0.000003 -0.000005 -0.357729 -92.324323 -0.198845 6.096970 -0.000002 0.000003 -1.767300 77.596277 -6.578559 -2.429252 25.456914 7.346832 -0.002095 
